<mxfile host="app.diagrams.net" modified="2024-01-24T23:24:59.795Z" agent="Mozilla/5.0 (Windows NT 10.0; Win64; x64) AppleWebKit/537.36 (KHTML, like Gecko) Chrome/120.0.0.0 Safari/537.36" etag="NMI4GiyuqVcGTU6Y5Gz3" version="22.1.21" type="github">
  <diagram name="Página-1" id="X--nigl0-WGzkR76D9oi">
    <mxGraphModel dx="1120" dy="460" grid="1" gridSize="10" guides="1" tooltips="1" connect="1" arrows="1" fold="1" page="1" pageScale="1" pageWidth="827" pageHeight="1169" math="0" shadow="0">
      <root>
        <mxCell id="0" />
        <mxCell id="1" parent="0" />
        <mxCell id="VK7BP7vXFEG7lASL9OT0-1" value="Banco" style="shape=umlActor;verticalLabelPosition=bottom;verticalAlign=top;html=1;outlineConnect=0;" vertex="1" parent="1">
          <mxGeometry x="680" y="450" width="30" height="60" as="geometry" />
        </mxCell>
        <mxCell id="VK7BP7vXFEG7lASL9OT0-2" value="Cajero" style="shape=umlActor;verticalLabelPosition=bottom;verticalAlign=top;html=1;outlineConnect=0;" vertex="1" parent="1">
          <mxGeometry x="720" y="220" width="30" height="60" as="geometry" />
        </mxCell>
        <mxCell id="VK7BP7vXFEG7lASL9OT0-3" value="Cocinero" style="shape=umlActor;verticalLabelPosition=bottom;verticalAlign=top;html=1;outlineConnect=0;" vertex="1" parent="1">
          <mxGeometry x="90" y="510" width="30" height="60" as="geometry" />
        </mxCell>
        <mxCell id="VK7BP7vXFEG7lASL9OT0-4" value="cliente" style="shape=umlActor;verticalLabelPosition=bottom;verticalAlign=top;html=1;outlineConnect=0;" vertex="1" parent="1">
          <mxGeometry x="100" y="170" width="30" height="60" as="geometry" />
        </mxCell>
        <mxCell id="VK7BP7vXFEG7lASL9OT0-6" value="Pagar" style="ellipse;whiteSpace=wrap;html=1;" vertex="1" parent="1">
          <mxGeometry x="240" y="120" width="120" height="80" as="geometry" />
        </mxCell>
        <mxCell id="VK7BP7vXFEG7lASL9OT0-7" value="Recoger la Pizza" style="ellipse;whiteSpace=wrap;html=1;" vertex="1" parent="1">
          <mxGeometry x="230" y="30" width="120" height="80" as="geometry" />
        </mxCell>
        <mxCell id="VK7BP7vXFEG7lASL9OT0-8" value="Ordenar" style="ellipse;whiteSpace=wrap;html=1;" vertex="1" parent="1">
          <mxGeometry x="160" y="310" width="120" height="80" as="geometry" />
        </mxCell>
        <mxCell id="VK7BP7vXFEG7lASL9OT0-9" value="Transferencia de Fondos" style="ellipse;whiteSpace=wrap;html=1;" vertex="1" parent="1">
          <mxGeometry x="510" y="410" width="120" height="80" as="geometry" />
        </mxCell>
        <mxCell id="VK7BP7vXFEG7lASL9OT0-10" value="Notificar al terminar una pizza" style="ellipse;whiteSpace=wrap;html=1;" vertex="1" parent="1">
          <mxGeometry x="170" y="620" width="120" height="80" as="geometry" />
        </mxCell>
        <mxCell id="VK7BP7vXFEG7lASL9OT0-11" value="Coordinar tiempos de preparación" style="ellipse;whiteSpace=wrap;html=1;" vertex="1" parent="1">
          <mxGeometry x="210" y="420" width="120" height="80" as="geometry" />
        </mxCell>
        <mxCell id="VK7BP7vXFEG7lASL9OT0-12" value="Cocinar" style="ellipse;whiteSpace=wrap;html=1;" vertex="1" parent="1">
          <mxGeometry x="210" y="520" width="120" height="80" as="geometry" />
        </mxCell>
        <mxCell id="VK7BP7vXFEG7lASL9OT0-13" value="Recibir llamadas" style="ellipse;whiteSpace=wrap;html=1;" vertex="1" parent="1">
          <mxGeometry x="510" y="170" width="120" height="80" as="geometry" />
        </mxCell>
        <mxCell id="VK7BP7vXFEG7lASL9OT0-14" value="Cobrar" style="ellipse;whiteSpace=wrap;html=1;" vertex="1" parent="1">
          <mxGeometry x="570" y="90" width="120" height="80" as="geometry" />
        </mxCell>
        <mxCell id="VK7BP7vXFEG7lASL9OT0-15" value="" style="ellipse;whiteSpace=wrap;html=1;" vertex="1" parent="1">
          <mxGeometry x="230" y="220" width="120" height="80" as="geometry" />
        </mxCell>
        <mxCell id="VK7BP7vXFEG7lASL9OT0-17" value="" style="endArrow=none;html=1;rounded=0;entryX=0.017;entryY=0.688;entryDx=0;entryDy=0;entryPerimeter=0;" edge="1" parent="1" source="VK7BP7vXFEG7lASL9OT0-4" target="VK7BP7vXFEG7lASL9OT0-7">
          <mxGeometry width="50" height="50" relative="1" as="geometry">
            <mxPoint x="390" y="300" as="sourcePoint" />
            <mxPoint x="440" y="250" as="targetPoint" />
          </mxGeometry>
        </mxCell>
        <mxCell id="VK7BP7vXFEG7lASL9OT0-18" value="" style="endArrow=none;html=1;rounded=0;" edge="1" parent="1" source="VK7BP7vXFEG7lASL9OT0-4" target="VK7BP7vXFEG7lASL9OT0-6">
          <mxGeometry width="50" height="50" relative="1" as="geometry">
            <mxPoint x="140" y="195" as="sourcePoint" />
            <mxPoint x="242" y="95" as="targetPoint" />
          </mxGeometry>
        </mxCell>
        <mxCell id="VK7BP7vXFEG7lASL9OT0-19" value="" style="endArrow=none;html=1;rounded=0;" edge="1" parent="1" source="VK7BP7vXFEG7lASL9OT0-4" target="VK7BP7vXFEG7lASL9OT0-8">
          <mxGeometry width="50" height="50" relative="1" as="geometry">
            <mxPoint x="140" y="207" as="sourcePoint" />
            <mxPoint x="253" y="182" as="targetPoint" />
          </mxGeometry>
        </mxCell>
        <mxCell id="VK7BP7vXFEG7lASL9OT0-22" value="" style="endArrow=none;html=1;rounded=0;entryX=0.933;entryY=0.775;entryDx=0;entryDy=0;entryPerimeter=0;" edge="1" parent="1" source="VK7BP7vXFEG7lASL9OT0-2" target="VK7BP7vXFEG7lASL9OT0-14">
          <mxGeometry width="50" height="50" relative="1" as="geometry">
            <mxPoint x="140" y="207" as="sourcePoint" />
            <mxPoint x="253" y="182" as="targetPoint" />
          </mxGeometry>
        </mxCell>
        <mxCell id="VK7BP7vXFEG7lASL9OT0-23" value="" style="endArrow=none;html=1;rounded=0;exitX=0.958;exitY=0.663;exitDx=0;exitDy=0;exitPerimeter=0;" edge="1" parent="1" source="VK7BP7vXFEG7lASL9OT0-9" target="VK7BP7vXFEG7lASL9OT0-1">
          <mxGeometry width="50" height="50" relative="1" as="geometry">
            <mxPoint x="685" y="427" as="sourcePoint" />
            <mxPoint x="750" y="520" as="targetPoint" />
          </mxGeometry>
        </mxCell>
        <mxCell id="VK7BP7vXFEG7lASL9OT0-24" value="" style="endArrow=none;html=1;rounded=0;entryX=0.083;entryY=0.825;entryDx=0;entryDy=0;entryPerimeter=0;" edge="1" parent="1" source="VK7BP7vXFEG7lASL9OT0-3" target="VK7BP7vXFEG7lASL9OT0-11">
          <mxGeometry width="50" height="50" relative="1" as="geometry">
            <mxPoint x="635" y="473" as="sourcePoint" />
            <mxPoint x="690" y="486" as="targetPoint" />
          </mxGeometry>
        </mxCell>
        <mxCell id="VK7BP7vXFEG7lASL9OT0-25" value="" style="endArrow=none;html=1;rounded=0;entryX=-0.033;entryY=0.413;entryDx=0;entryDy=0;entryPerimeter=0;" edge="1" parent="1" source="VK7BP7vXFEG7lASL9OT0-3" target="VK7BP7vXFEG7lASL9OT0-12">
          <mxGeometry width="50" height="50" relative="1" as="geometry">
            <mxPoint x="130" y="543" as="sourcePoint" />
            <mxPoint x="230" y="496" as="targetPoint" />
          </mxGeometry>
        </mxCell>
        <mxCell id="VK7BP7vXFEG7lASL9OT0-26" value="" style="endArrow=none;html=1;rounded=0;entryX=0.308;entryY=0.05;entryDx=0;entryDy=0;entryPerimeter=0;" edge="1" parent="1" source="VK7BP7vXFEG7lASL9OT0-3" target="VK7BP7vXFEG7lASL9OT0-10">
          <mxGeometry width="50" height="50" relative="1" as="geometry">
            <mxPoint x="140" y="553" as="sourcePoint" />
            <mxPoint x="240" y="506" as="targetPoint" />
          </mxGeometry>
        </mxCell>
      </root>
    </mxGraphModel>
  </diagram>
</mxfile>
